<svg xmlns="http://www.w3.org/2000/svg" aria-hidden="true" style="position:absolute;width:0;height:0;overflow:hidden">
<defs>
<symbol id="phone">
<path d="M11 10c-1 1-1 2-2 2s-2-1-3-2-2-2-2-3 1-1 2-2-2-4-3-4-3 3-3 3c0 2 2.055 6.055 4 8s6 4 8 4c0 0 3-2 3-3s-3-4-4-3z"/>
</symbol>
<symbol id="mail">
<path d="M14.5 2h-13C.675 2 0 2.675 0 3.5v10c0 .825.675 1.5 1.5 1.5h13c.825 0 1.5-.675 1.5-1.5v-10c0-.825-.675-1.5-1.5-1.5zM6.23 8.6 2 11.895V4.057L6.23 8.6zM2.756 4h10.488L8 7.938 2.756 4zm3.639 4.777L8 10.5l1.605-1.723L12.895 13h-9.79l3.29-4.223zM9.77 8.6 14 4.057v7.838L9.77 8.6z"/>
</symbol>
<symbol id="location">
<path d="M8 0a5 5 0 0 0-5 5c0 5 5 11 5 11s5-6 5-11a5 5 0 0 0-5-5zm0 8a3 3 0 1 1 0-6 3 3 0 0 1 0 6z"/>
</symbol>
<symbol id="telegram">
<path d="M8 0C3.581 0 0 3.581 0 8s3.581 8 8 8 8-3.581 8-8-3.581-8-8-8zm3.931 5.484-1.313 6.184c-.091.441-.356.544-.725.341l-2-1.478-.959.934c-.112.109-.2.2-.4.2-.259 0-.216-.097-.303-.344L5.55 9.084l-1.978-.616c-.428-.131-.431-.425.097-.634l7.706-2.975c.35-.159.691.084.556.625z"/>
</symbol>
<symbol id="github">
<path d="M8 .198a8 8 0 0 0-2.529 15.591c.4.074.547-.174.547-.385 0-.191-.008-.821-.011-1.489-2.226.484-2.695-.944-2.695-.944-.364-.925-.888-1.171-.888-1.171-.726-.497.055-.486.055-.486.803.056 1.226.824 1.226.824.714 1.223 1.872.869 2.328.665.072-.517.279-.87.508-1.07-1.777-.202-3.645-.888-3.645-3.954 0-.873.313-1.587.824-2.147-.083-.202-.357-1.015.077-2.117 0 0 .672-.215 2.201.82A7.672 7.672 0 0 1 8 4.066c.68.003 1.365.092 2.004.269 1.527-1.035 2.198-.82 2.198-.82.435 1.102.162 1.916.079 2.117.513.56.823 1.274.823 2.147 0 3.073-1.872 3.749-3.653 3.947.287.248.543.735.543 1.481 0 1.07-.009 1.932-.009 2.195 0 .213.144.462.55.384A8 8 0 0 0 8.001.196z"/>
</symbol>
<symbol id="linkedin">
<path d="M6 6h2.767v1.418h.04C9.192 6.727 10.134 6 11.539 6 14.46 6 15 7.818 15 10.183V15h-2.885v-4.27c0-1.018-.021-2.329-1.5-2.329-1.502 0-1.732 1.109-1.732 2.255V15H6V6zM1 6h3v9H1V6zM4 3.5a1.5 1.5 0 1 1-3.001-.001A1.5 1.5 0 0 1 4 3.5z"/>
</symbol>
</defs>
</svg>